HIERARCHY
ROOT Hips
{
    OFFSET 0.000000 0.000000 0.000000
    CHANNELS 6 Xposition Yposition Zposition Zrotation Xrotation Yrotation
    JOINT Spine
    {
        OFFSET -0.000000 7.246840 0.000000
        CHANNELS 3 Zrotation Xrotation Yrotation
        JOINT Spine1
        {
            OFFSET -0.000000 20.289354 0.000000
            CHANNELS 3 Zrotation Xrotation Yrotation
            JOINT Neck
            {
                OFFSET -0.000000 20.206032 1.836912
                CHANNELS 3 Zrotation Xrotation Yrotation
                JOINT Head
                {
                    OFFSET -0.000000 12.372654 -1.767522
                    CHANNELS 3 Zrotation Xrotation Yrotation
                    End Site
                    {
                        OFFSET -0.000000 22.094025 0.000000
                    }
                }
            }
            JOINT LeftShoulder
            {
                OFFSET 3.465871 17.201674 -0.568930
                CHANNELS 3 Zrotation Xrotation Yrotation
                JOINT LeftArm
                {
                    OFFSET 14.070313 0.000000 0.000000
                    CHANNELS 3 Zrotation Xrotation Yrotation
                    JOINT LeftForeArm
                    {
                        OFFSET 26.549477 0.000000 0.000000
                        CHANNELS 3 Zrotation Xrotation Yrotation
                        JOINT LeftHand
                        {
                            OFFSET 18.880413 0.000000 0.000000
                            CHANNELS 3 Zrotation Xrotation Yrotation
                            End Site
                            {
                                OFFSET 13.256415 0.000000 0.000000
                            }
                        }
                    }
                }
            }
            JOINT RightShoulder
            {
                OFFSET -3.526370 17.201674 -0.568930
                CHANNELS 3 Zrotation Xrotation Yrotation
                JOINT RightArm
                {
                    OFFSET -14.070313 0.000000 0.000000
                    CHANNELS 3 Zrotation Xrotation Yrotation
                    JOINT RightForeArm
                    {
                        OFFSET -26.549477 0.000000 0.000000
                        CHANNELS 3 Zrotation Xrotation Yrotation
                        JOINT RightHand
                        {
                            OFFSET -18.880413 0.000000 0.000000
                            CHANNELS 3 Zrotation Xrotation Yrotation
                            End Site
                            {
                                OFFSET -13.256415 0.000000 0.000000
                            }
                        }
                    }
                }
            }
        }
    }
    JOINT LeftUpLeg
    {
        OFFSET 8.837609 0.000000 0.000000
        CHANNELS 3 Zrotation Xrotation Yrotation
        JOINT LeftLeg
        {
            OFFSET -0.000000 -41.345005 0.000000
            CHANNELS 3 Zrotation Xrotation Yrotation
            JOINT LeftFoot
            {
                OFFSET -0.000000 -35.500874 0.000000
                CHANNELS 3 Zrotation Xrotation Yrotation
                JOINT LeftToeBase
                {
                    OFFSET -0.000000 -5.744446 13.256415
                    CHANNELS 3 Zrotation Xrotation Yrotation
                    End Site
                    {
                        OFFSET -0.000000 0.000000 3.535044
                    }
                }
            }
        }
    }
    JOINT RightUpLeg
    {
        OFFSET -8.837609 0.000000 0.000000
        CHANNELS 3 Zrotation Xrotation Yrotation
        JOINT RightLeg
        {
            OFFSET -0.000000 -41.345005 0.000000
            CHANNELS 3 Zrotation Xrotation Yrotation
            JOINT RightFoot
            {
                OFFSET -0.000000 -35.500874 0.000000
                CHANNELS 3 Zrotation Xrotation Yrotation
                JOINT RightToeBase
                {
                    OFFSET -0.000000 -5.744446 13.256415
                    CHANNELS 3 Zrotation Xrotation Yrotation
                    End Site
                    {
                        OFFSET -0.000000 0.000000 3.535044
                    }
                }
            }
        }
    }
}
MOTION
Frames:    12
Frame Time:    0.010000
0.893337    9.980142    -41.569714    10.185352    -36.117142    4.638187    -8.049453    22.568487    0.468188    -3.629299    18.361540    -0.553826    5.054222    26.993982    -3.703807    2.206122    -26.914146    -2.506193    6.553935    -6.614193    -1.768626    -69.122940    27.791721    -23.993059    20.259342    -26.891941    -64.141830    -44.860760    -7.116721    -18.978476    0.127620    -1.863170    15.922145    64.202324    30.007782    14.676353    -33.059277    -28.455364    65.962738    -2.436561    -7.769707    20.520929    16.902163    -65.153870    24.202688    -2.357286    41.047852    1.770736    -13.682447    49.896484    -4.379447    0.651826    7.928700    -0.872982    -45.587147    -66.832138    -35.742981    -6.222254    41.322079    8.700869    20.413025    50.535469    -6.055142    -6.457741    21.101587    9.570606    
0.899995    9.980124    -41.570549    10.199773    -36.103786    4.679305    -8.134564    22.508959    0.474310    -3.345968    18.575338    -0.599788    4.658257    26.676357    -3.659960    2.427789    -26.732525    -2.438866    6.273228    -6.803004    -1.644489    -68.943459    27.916861    -24.036345    20.214014    -26.895041    -64.165848    -44.879654    -7.139759    -18.978868    -0.117976    -2.082952    15.780226    64.352005    30.125738    14.711400    -33.109177    -28.448597    65.940216    -2.407675    -7.730817    20.539799    16.798500    -65.180862    24.077530    -2.372145    41.047470    1.831489    -13.650793    49.909790    -4.400737    0.663592    7.913497    -0.888811    -45.699375    -66.808479    -35.827869    -6.196846    41.324013    8.718008    20.490294    50.514412    -6.135105    -6.429217    21.116653    9.527355    
0.894806    9.978783    -41.572952    10.196333    -36.118305    4.651242    -8.141344    22.533337    0.497479    -3.361411    18.577259    -0.577246    4.709924    26.695398    -3.667423    2.380463    -26.776264    -2.457010    6.293482    -6.817420    -1.644141    -68.930298    27.990845    -24.027992    20.256571    -26.954144    -64.163254    -44.900921    -7.166424    -18.997602    -0.107429    -2.091456    15.779118    64.361801    30.124756    14.698618    -33.120052    -28.462729    65.949089    -2.411626    -7.735415    20.527975    16.865122    -65.158195    24.130941    -2.387064    41.042587    1.800298    -13.704996    49.904388    -4.339780    0.659422    7.919605    -0.883198    -45.598835    -66.824310    -35.755344    -6.233452    41.310162    8.715769    20.447451    50.539566    -6.081398    -6.452345    21.137047    9.560072    
0.906584    9.978685    -41.573265    10.215351    -36.097153    4.721637    -8.108784    22.505825    0.455943    -3.365229    18.612123    -0.608499    4.703861    26.710787    -3.670021    2.405544    -26.800978    -2.449828    6.293075    -6.808573    -1.639974    -68.949310    27.954882    -24.058958    20.233589    -26.918829    -64.172897    -44.865971    -7.150708    -18.987640    -0.114028    -2.084427    15.792042    64.349304    30.112720    14.691378    -33.130379    -28.481291    65.954735    -2.407739    -7.745904    20.538012    16.684111    -65.205956    23.976439    -2.340758    41.037514    1.786225    -13.661922    49.920242    -4.385445    0.651800    7.917092    -0.873001    -45.784214    -66.783188    -35.926479    -6.213079    41.314758    8.730134    20.445301    50.547237    -6.084374    -6.448118    21.094013    9.556924    
0.900196    9.982553    -41.568764    10.199038    -36.110802    4.684821    -8.120477    22.491238    0.479481    -3.354083    18.656061    -0.586731    4.654881    26.719284    -3.668198    2.503286    -26.815784    -2.416213    6.279846    -6.810952    -1.634859    -68.932228    27.974939    -24.073906    20.261953    -26.935425    -64.168617    -44.882713    -7.142929    -19.000935    -0.108191    -2.081119    15.796547    64.321732    30.150497    14.703022    -33.188541    -28.528820    65.917175    -2.398293    -7.771682    20.529890    16.768545    -65.180946    24.054255    -2.352994    41.046616    1.754718    -13.680471    49.897141    -4.365738    0.641316    7.918861    -0.858952    -45.683487    -66.793739    -35.826221    -6.204772    41.313141    8.724174    20.457766    50.525345    -6.110306    -6.456316    21.134724    9.566109    
0.898212    9.983932    -41.568359    10.195201    -36.116585    4.672346    -8.039335    22.529465    0.462798    -3.612955    18.490715    -0.552806    5.061433    27.059196    -3.700629    2.261766    -27.031893    -2.475965    6.538052    -6.631195    -1.752784    -69.071915    27.778635    -24.086397    20.207600    -26.846577    -64.174316    -44.846775    -7.096978    -18.972689    0.132268    -1.861229    15.971339    64.170685    29.971956    14.642198    -33.116802    -28.548639    65.986443    -2.430933    -7.821999    20.535116    16.785156    -65.167252    24.051804    -2.365396    41.045101    1.773472    -13.676599    49.891983    -4.371250    0.639970    7.941649    -0.857046    -45.645195    -66.798241    -35.798714    -6.214379    41.313190    8.734790    20.439651    50.526707    -6.103018    -6.458096    21.139977    9.568359    
0.902371    9.982624    -41.571281    10.201371    -36.117386    4.697023    -8.005099    22.538780    0.449193    -3.647031    18.505409    -0.554227    5.053838    27.068657    -3.707590    2.327162    -27.055515    -2.458826    6.559958    -6.631079    -1.746285    -68.979202    27.961021    -24.124855    20.310867    -26.975767    -64.110870    -44.835728    -7.170439    -19.022825    0.144591    -1.873870    15.960184    64.176689    29.969660    14.631083    -33.135754    -28.551950    65.990494    -2.418076    -7.807904    20.536522    16.709517    -65.177185    23.978691    -2.348692    41.034916    1.772642    -13.650067    49.923870    -4.380958    0.642060    7.906468    -0.860003    -45.687996    -66.780731    -35.855549    -6.230288    41.309444    8.743203    20.435505    50.552608    -6.081347    -6.450831    21.115520    9.559386    
0.903284    9.986787    -41.567715    10.204478    -36.116501    4.706689    -8.002201    22.514174    0.448272    -3.640132    18.544014    -0.552660    5.095422    27.085127    -3.704420    2.258540    -27.080706    -2.475235    6.536923    -6.639564    -1.766144    -69.009933    27.814562    -24.125027    20.197863    -26.855761    -64.176933    -44.834660    -7.112002    -18.980251    0.143957    -1.856320    15.971025    64.163216    29.940948    14.633327    -33.138489    -28.561661    66.010384    -2.422527    -7.808637    20.519571    16.672068    -65.177261    23.941940    -2.330491    41.033428    1.752032    -13.679420    49.907181    -4.361953    0.643588    7.918959    -0.861994    -45.708191    -66.768822    -35.867828    -6.220804    41.306755    8.732310    20.432552    50.546337    -6.086111    -6.458063    21.109276    9.570527    
0.900230    9.985402    -41.570969    10.199757    -36.136662    4.688719    -8.025076    22.541653    0.469450    -3.610843    18.549587    -0.542687    5.081306    27.079899    -3.699312    2.279944    -27.073997    -2.463875    6.539339    -6.630636    -1.752215    -68.971718    27.908020    -24.157217    20.231316    -26.910187    -64.160378    -44.789997    -7.150248    -19.011961    0.132617    -1.870286    15.969576    64.171967    29.926640    14.623954    -33.125290    -28.566799    66.033485    -2.427546    -7.814869    20.520353    16.698505    -65.154480    23.952610    -2.331098    41.030445    1.743265    -13.700711    49.908779    -4.334626    0.644967    7.921987    -0.863828    -45.622208    -66.770058    -35.796101    -6.248166    41.298756    8.753761    20.460218    50.542023    -6.103199    -6.451170    21.148731    9.557494    
0.891521    9.983916    -41.576603    10.198493    -36.160870    4.653886    -8.072499    22.582287    0.509086    -3.571647    18.538513    -0.522250    5.081110    27.089788    -3.688893    2.270787    -27.085129    -2.455736    6.519405    -6.646613    -1.762491    -68.978806    27.845072    -24.146515    20.181576    -26.834890    -64.210266    -44.767467    -7.102945    -18.983152    0.119187    -1.874386    15.966702    64.174812    29.930639    14.623554    -33.131500    -28.573219    66.036713    -2.445388    -7.819311    20.516445    16.759401    -65.116837    24.032038    -2.317546    41.023388    1.744527    -13.694258    49.918491    -4.362112    0.648123    7.926157    -0.868035    -45.491325    -66.787811    -35.642956    -6.239693    41.291134    8.685142    20.421631    50.563850    -6.059064    -6.460037    21.141035    9.571151    
0.896934    9.987360    -41.571301    10.197851    -36.158089    4.678256    -8.041744    22.549938    0.490857    -3.583042    18.582523    -0.528613    5.093157    27.102596    -3.691422    2.267591    -27.085392    -2.457609    6.520671    -6.628133    -1.761656    -68.967590    27.845425    -24.168234    20.181175    -26.812431    -64.235832    -44.742622    -7.085490    -18.962278    0.127916    -1.864859    15.968770    64.152321    29.906218    14.629535    -33.114506    -28.569145    66.063728    -2.448325    -7.815637    20.506838    16.682205    -65.129280    23.918966    -2.332562    41.022156    1.787288    -13.690404    49.924740    -4.368333    0.648418    7.920792    -0.868454    -45.545868    -66.763466    -35.693100    -6.238171    41.292583    8.703789    20.460814    50.555397    -6.088037    -6.454186    21.139906    9.562588    
0.901551    9.984124    -41.579372    10.212035    -36.155991    4.714223    -8.030990    22.563917    0.474509    -3.582833    18.585829    -0.543846    5.095808    27.108767    -3.684515    2.273967    -27.084734    -2.447495    6.521491    -6.621580    -1.754888    -68.947983    27.842499    -24.179983    20.129519    -26.781988    -64.299873    -44.672142    -7.084007    -18.960075    0.118154    -1.878573    15.978030    64.160240    29.903107    14.619248    -33.137272    -28.579672    66.052582    -2.408747    -7.808922    20.517818    16.575701    -65.141708    23.790430    -2.317597    40.988594    1.747927    -13.752674    49.941017    -4.293602    0.636741    7.923276    -0.852804    -45.614037    -66.742317    -35.742207    -6.221454    41.292797    8.706328    20.485483    50.545017    -6.119363    -6.447895    21.158739    9.551933    
